<svg xmlns="http://www.w3.org/2000/svg" id="Layer_1" version="1.1" viewBox="0 0 120 40"><defs><style>.st0{fill:#169485}</style></defs><path d="M23.6674194 6.5266113c-2.8271484-.0477905-5.3719482 1.2138672-7.1363525 3.199646-1.7006836-1.920166-4.1607056-3.1530762-6.9104614-3.199646-1.8106079-.0306396-3.5025635.4822998-4.953064 1.369873-.40271-.8096313-1.2298584-1.3712158-2.1955566-1.3712158-1.3587037 1e-7-2.4601441 1.1014405-2.4601441 2.4601441v6.9802246C.0099487 16.0437012 0 16.1199951 0 16.1984253v11.6473389c0 1.3587036 1.1014404 2.4602051 2.4602051 2.4602051.0020142 0 .0039062-.0006104.0059204-.0006104s.0038452.0006104.0058594.0006104c1.3587646 0 2.4602051-1.1015015 2.4602051-2.4602051V15.8729248c.0640259-2.5936279 2.3042603-4.6570435 4.963501-4.4066772 2.3511353.2213745 4.1002808 2.2885742 4.1002808 4.6501465v11.7293701c0 1.3587036 1.1014404 2.4602051 2.4602051 2.4602051.008728 0 .0167847-.0025024.0255127-.0025635.008728.000061.0167236.0025635.0254517.0025635 1.3587036 0 2.4602051-1.1015015 2.4602051-2.4602051V15.9836426c0-2.6467896 2.2774658-4.7714844 4.9754028-4.517395 2.3511963.2214355 4.1004028 2.2887573 4.1004028 4.6503296v11.729187c0 1.3587036 1.1014404 2.4602051 2.460144 2.4602051s2.4602051-1.1015015 2.4602051-2.4602051V15.9836426c0-5.1611328-4.1553345-9.3701172-9.2960815-9.4570312ZM67.1935425 6.5266113c-2.8270874-.0477295-5.3718872 1.2139282-7.1362305 3.199646-1.7006836-1.920166-4.1607056-3.1530762-6.9104614-3.199646-5.2905884-.0894775-9.6206055 4.3804321-9.6206055 9.671814v7.9556274c0 1.0603638-.9143677 1.9111328-1.9960327 1.805542-.942627-.09198-1.6332397-.9393921-1.6332397-1.8865356V8.9854737c0-1.3587036-1.1014404-2.460144-2.460144-2.460144h-.000061c-1.3587036 0-2.460144 1.1014404-2.460144 2.460144v14.9899902c0 3.7672729 3.0825806 6.9754028 6.8493652 6.9124146 3.6611938-.0612183 6.6206055-3.0584717 6.6206055-6.7338257v-8.1704102c0-2.6467285 2.2774048-4.7714233 4.9753418-4.517395 2.3511353.2213745 4.1002808 2.2885742 4.1002808 4.6501465v11.7293701c0 1.3587036 1.1015015 2.4602051 2.4602051 2.4602051.008728 0 .0167847-.0025024.0255127-.0025635.008728.000061.0167847.0025635.0255127.0025635 1.3587036 0 2.460144-1.1015015 2.460144-2.4602051V15.9836426c0-2.6466675 2.2770386-4.7712402 4.9750977-4.517395 2.3514404.2212524 4.1008911 2.2886353 4.1008911 4.6503906v11.729126c0 1.3587036 1.1014404 2.4602051 2.4602051 2.4602051 1.3587036 0 2.460144-1.1015015 2.460144-2.4602051V15.9836426c0-5.1611938-4.1555786-9.3701782-9.2963867-9.4570312ZM37.4368286 5.5403442c1.5299683 0 2.7702026-1.2402344 2.7702026-2.7701416C40.2070312 1.2402343 38.9667968 0 37.4368286 0c-1.5299072 0-2.7701416 1.2402344-2.7701416 2.7702026 0 1.5299072 1.2402344 2.7701416 2.7701416 2.7701416ZM89.9943237 6.5569458c-6.7295532 0-12.1798096 5.4540405-12.1798096 12.1798096 0 6.725708 5.4502563 12.1797485 12.1798096 12.1797485 6.725769 0 12.1797485-5.4540405 12.1797485-12.1797485 0-6.725769-5.4539795-12.1798096-12.1797485-12.1798096Zm0 19.4127197c-3.9968872 0-7.2329102-3.2398682-7.2329102-7.2329102 0-3.9968872 3.236084-7.2329712 7.2329102-7.2329712 3.993042 0 7.2329102 3.236084 7.2329102 7.2329712 0 3.993042-3.2398682 7.2329102-7.2329102 7.2329102ZM117.734314 18.7929688c-.6381226-.5037231-1.3849487-.9356689-2.2409058-1.2966919-.855957-.3609009-1.8716431-.7258301-3.0462646-1.0951538-.7221069-.2180176-1.3217773-.4193726-1.8001709-.6043701-.4783936-.1844482-.894043-.3858032-1.24646-.604187-.8225708-.5200195-1.2334595-1.1412964-1.2334595-1.8632202 0-.7717285.3312378-1.359436.9944458-1.7623291.6628418-.402832 1.5313721-.604187 2.605896-.604187.7884521 0 1.5439453.2099609 2.265686.6293335.151062.0841675.4697876.2939453.9567871.6295166l1.0070801.755249c.2519531.1177368.5286255.1762085.8308105.1762085.6377563 0 1.1832275-.25177 1.6365356-.755249.3688965-.4028931.553772-.855957.553772-1.3594971 0-.3859863-.0922241-.755249-.2766724-1.1079102-.5541992-1.0739136-1.5698242-1.9216309-3.0466919-2.5427246-1.3429565-.5539551-2.769165-.8308105-4.2800903-.8308105-1.0741577 0-2.1106567.1636353-3.1090698.4907837-.9987793.3272705-1.8759155.7849121-2.6309814 1.3721924-.7892456.6212769-1.4100952 1.3640137-1.8634033 2.2282104-.4528809.864563-.6797485 1.8087769-.6797485 2.8323364 0 1.8466797.8222046 3.3572388 2.4674072 4.5318604.6710815.50354 1.4516602.9568481 2.3413696 1.3596802.8897095.4026489 1.9301147.8139648 3.1220093 1.2335205l1.359436.4281616c1.0742188.3359375 1.8465576.8056641 2.3162842 1.409668.2684937.3190918.4030762.7304077.4030762 1.2338867 0 .7892456-.3693237 1.4014893-1.1079102 1.8378906-.7385864.4533081-1.5776367.6797485-2.5175781.6797485-1.0408325 0-1.8967896-.1762085-2.5682373-.5286865-.6715088-.352417-1.2837524-.9316406-1.8378906-1.7373657-.3190308-.4026489-.6715088-.7005615-1.057251-.8936157-.3861694-.192688-.7805786-.2896729-1.1832886-.2896729-.4367676 0-.8308105.0969849-1.1832275.2896729-.352417.1930542-.6295166.4658203-.8308105.8182373-.2017212.3021851-.3022461.6715088-.3022461 1.1079102 0 .4697876.1260376.9313354.3775635 1.3845825.7554932 1.409729 1.9972534 2.4924927 3.7263794 3.2479858 1.4936523.6715088 3.121582 1.007019 4.8840942 1.007019 1.1915283 0 2.3037109-.180542 3.3358765-.5415649 1.0325317-.3606567 1.9344482-.8685303 2.7067871-1.5231323.7715454-.6546021 1.3676758-1.4136353 1.7872314-2.2786255C119.789978 25.3934938 120 24.4664918 120 23.4759523c0-1.9470215-.755127-3.5079956-2.265686-4.6829834ZM8.3911133 36.4841919l1.6895752-1.833374c.0813599-.0900879.1362305-.197937.1362305-.3414307 0-.2792969-.2247925-.5041504-.5041504-.5041504-.1347046 0-.269104.0545044-.3769531.1715088l-2.1585083 2.4083252v-2.0578613c0-.2883911-.2339478-.5219727-.520813-.5219727-.2880249 0-.5215454.2335815-.5215454.5219727v5.1508789c0 .2868652.2335205.5219116.5215454.5219116.2868652 0 .520813-.2350464.520813-.5219116v-1.7266846l.5128174-.538208 1.8527222 2.5619507C9.6136476 39.8728027 9.747986 40 9.9641114 40c.2793579 0 .5128784-.2350464.5128784-.5128784 0-.1082153-.0355835-.2161255-.0988159-.2974854l-1.9870605-2.7054443ZM18.3794556 33.6985474c-1.8156128 0-2.8504028 1.0245361-2.8504028 3.1550293 0 2.1040649 1.03479 3.1464233 2.8504028 3.1464233s2.848877-1.0423584 2.848877-3.1464233c0-2.1304932-1.0332642-3.1550293-2.848877-3.1550293Zm0 5.3669433c-1.1873169 0-1.7713623-.7289429-1.7713623-2.2119141 0-1.4915771.5840454-2.2205811 1.7713623-2.2205811 1.185791 0 1.7713013.7290039 1.7713013 2.2205811 0 1.4829712-.5855103 2.2119141-1.7713013 2.2119141ZM29.9203491 37.5458374c.8621826-.1078491 1.3840942-.9359741 1.3840942-1.7891235 0-1.0158691-.6831665-1.8792114-1.8969727-1.8792114h-1.7164307c-.2883911 0-.5219727.2335205-.5219727.5219727v5.0785522c0 .2868652.2335815.5219727.5219727.5219727.2868652 0 .5204468-.2351074.5204468-.5219727v-1.8701172h.5839844l1.6365967 2.2028198c.0900879.1169434.2512817.18927.4049683.18927.2868652 0 .5204468-.2351074.5204468-.5219727 0-.0991821-.0265503-.2070312-.1079102-.3148804l-1.3292236-1.6173096Zm-1.7088623-.8546143v-1.8792114h1.1868896c.5840454 0 .8266602.458374.8266602.9447021 0 .4761353-.2426147.9345093-.7997437.9345093h-1.2138062ZM40.3435669 39.0654907h-2.3829956v-1.6543579h1.7001953c.2512817 0 .458313-.2070312.458313-.458374 0-.2528076-.2070312-.458313-.458313-.458313h-1.7001953v-1.6101074h2.2841797c.2600098 0 .467041-.2070312.467041-.467041 0-.260437-.2070312-.4674683-.467041-.4674683h-2.8045654c-.2884521 0-.5219727.2335205-.5219727.5219727v5.0062256c0 .2880859.2335205.5219727.5219727.5219727h2.9033813c.260376 0 .4674072-.2070312.4674072-.4674683 0-.2615356-.2070312-.467041-.4674072-.467041ZM49.1332397 34.1288452c-.0545044-.1256714-.197998-.3236084-.4761963-.3236084-.2792969 0-.4227295.197937-.4772339.3236084l-2.1203003 5.1690063c-.0280151.0635986-.0371094.1343994-.0371094.18927 0 .277832.2338867.5128784.5132446.5128784.2335205 0 .4034424-.1536865.4848633-.3429565l.5484009-1.3027344h2.1748047l.5488281 1.3027344c.0809937.18927.2528076.3429565.4863281.3429565.277832 0 .5113525-.2351074.5113525-.5128784 0-.0548706-.008728-.1256714-.0352173-.18927l-2.1217651-5.1690063Zm-1.2138671 3.2720337.7376709-1.8878784.7365723 1.8878784h-1.4742432ZM64.3276367 33.9498291h-1.2126465c-.2880249 0-.5215454.2335815-.5215454.5219727v5.0062866c0 .2880249.2335205.5219116.5215454.5219116h1.2126465c1.7887573 0 2.9212036-.8001099 2.9212036-3.0206909 0-2.2206421-1.1324463-3.02948-2.9212036-3.02948Zm0 5.1156616h-.6922607v-4.1811523h.6922607c1.1517944 0 1.8436279.5306396 1.8436279 2.0949707 0 1.56427-.6918335 2.0861816-1.8436279 2.0861816ZM76.3208618 39.0654907H73.9375v-1.6543579h1.6986694c.2528076 0 .4598389-.2070312.4598389-.458374 0-.2528076-.2070312-.458313-.4598389-.458313H73.9375v-1.6101074h2.2841797c.260437 0 .4674072-.2070312.4674072-.467041 0-.260437-.2069702-.4674683-.4674072-.4674683h-2.8046265c-.2880249 0-.5219116.2335205-.5219116.5219727v5.0062256c0 .2880859.2338867.5219727.5219116.5219727h2.9038086c.260376 0 .467041-.2070312.467041-.4674683 0-.2615356-.206665-.467041-.467041-.467041ZM83.3096313 35.3427124c0-.3591919.277832-.7096558 1.0245972-.7096558.5117188 0 .9802856.2070312 1.2581177.4761353.1347046.1256714.260376.197937.3875732.197937.269104 0 .4848022-.2157593.4848022-.4761353 0-.1079102-.0355835-.206665-.0900879-.2880249-.3595581-.5117188-1.1414795-.8444214-2.0404053-.8444214-1.4295654 0-2.0684814.7539673-2.0684814 1.644165 0 2.1676025 3.2822876 1.56427 3.2822876 2.8772583 0 .5571289-.3963013.8277588-1.2138062.8277588-.6210938 0-1.0968628-.3062134-1.4742432-.6846924-.0900879-.088562-.197937-.1964111-.395874-.1964111-.260437 0-.4761353.2156982-.4761353.4848022 0 .0900879.0264893.180542.0722656.2513428.3505249.5662231 1.2036133 1.097229 2.2739868 1.097229 1.4829102 0 2.2561646-.6831665 2.2561646-1.7800293 0-2.2474365-3.2807617-1.6990356-3.2807617-2.8772583ZM92.1345215 33.8052368c-.2880249 0-.5219727.2335815-.5219727.5219727v5.1508789c0 .2868652.2338867.5219116.5219727.5219116.2868652 0 .5203857-.2350464.5203857-.5219116v-5.1508789c0-.2883911-.2335205-.5219727-.5203857-.5219727ZM102.6716309 36.6287842h-1.7444458c-.2513428 0-.458374.2070312-.458374.458374 0 .2512817.2070312.458374.458374.458374h1.2224731l.000061 1.0067749c-.3501587.3595581-.8175659.5131836-1.4829102.5131836-1.1960449 0-1.7357788-.638855-1.7357788-2.211853 0-1.4829102.5397339-2.2205811 1.7357788-2.2205811.6551514 0 1.0423584.2247925 1.4105835.6297607.1165771.1256714.2422485.1790161.3682861.1790161.2702637 0 .4863281-.2160645.4863281-.4761353 0-.0991211-.0268555-.189209-.0991211-.2971191-.3682861-.538208-1.0794678-.9700317-2.1660767-.9700317-1.7887573 0-2.8148804 1.0245361-2.8148804 3.1550903 0 2.2028198 1.026123 3.1463623 2.8148804 3.1463623.9609375 0 1.9147339-.4053345 2.3466187-.9802856.1078491-.1347046.1520996-.269104.1520996-.4761353v-1.4386597c0-.2600098-.2425537-.4761353-.4938965-.4761353ZM113.3522339 33.8052368c-.277832 0-.5117188.2335815-.5117188.5128784V37.87854l-2.6611938-3.8575439c-.0900269-.1343384-.2335205-.2157593-.4140625-.2157593-.277771 0-.5112915.2335815-.5112915.5128784v5.1690063c0 .277832.2335205.5128784.5112915.5128784.2797241 0 .5132446-.2350464.5132446-.5128784v-3.5426636l2.6524658 3.8306885c.088562.1347656.2512817.2248535.4212646.2248535.2792969 0 .5128174-.2350464.5128174-.5128784v-5.1690063c0-.2792969-.2335205-.5128784-.5128174-.5128784Z" class="st0"/></svg>
